<svg xmlns="http://www.w3.org/2000/svg" xmlns:xlink="http://www.w3.org/1999/xlink" xmlns:svgjs="http://svgjs.com/svgjs" version="1.1" width="512" height="512" x="0" y="0" viewBox="0 0 486.805 486.805" style="enable-background:new 0 0 512 512" xml:space="preserve"><g><path d="M261.397 17.983c-88.909 0-167.372 51.302-203.909 129.073L32.072 94.282 0 109.73l52.783 109.565 109.565-52.786-15.451-32.066-57.077 27.491c30.833-65.308 96.818-108.353 171.577-108.353 104.668 0 189.818 85.154 189.818 189.821s-85.15 189.824-189.818 189.824c-61.631 0-119.663-30.109-155.228-80.539l-29.096 20.521c42.241 59.87 111.143 95.613 184.324 95.613 124.286 0 225.407-101.122 225.407-225.419S385.684 17.983 261.397 17.983z" fill="#000000" data-original="#000000"/></g></svg>